<svg xmlns="http://www.w3.org/2000/svg" fill="none" viewBox="0 0 1574 1474"><path stroke="url(#hero-overlay-bg_svg__a)" d="M849.5 36v728" opacity=".3" style="mix-blend-mode:overlay"/><path stroke="url(#hero-overlay-bg_svg__b)" d="M829.5 36v728" opacity=".3" style="mix-blend-mode:overlay"/><path stroke="url(#hero-overlay-bg_svg__c)" d="M597.5 376v392" opacity=".3" style="mix-blend-mode:overlay"/><path stroke="url(#hero-overlay-bg_svg__d)" d="M439.5 430v338" opacity=".3" style="mix-blend-mode:overlay"/><path stroke="url(#hero-overlay-bg_svg__e)" d="M577.5 376v392" opacity=".3" style="mix-blend-mode:overlay"/><path stroke="url(#hero-overlay-bg_svg__f)" d="M419.5 435v333" opacity=".3" style="mix-blend-mode:overlay"/><path stroke="url(#hero-overlay-bg_svg__g)" d="M1017.5 36v729" opacity=".3" style="mix-blend-mode:overlay"/><path stroke="url(#hero-overlay-bg_svg__h)" d="M1037.5 0v870" opacity=".3" style="mix-blend-mode:overlay"/><path stroke="url(#hero-overlay-bg_svg__i)" d="M1117.5 0v1474" opacity=".3" style="mix-blend-mode:overlay"/><path stroke="url(#hero-overlay-bg_svg__j)" d="M1381.5 0v1474" opacity=".3" style="mix-blend-mode:overlay"/><path stroke="url(#hero-overlay-bg_svg__k)" d="M1097.5 0v1474" opacity=".3" style="mix-blend-mode:overlay"/><path stroke="url(#hero-overlay-bg_svg__l)" d="M1361.5 0v1474" opacity=".3" style="mix-blend-mode:overlay"/><path stroke="url(#hero-overlay-bg_svg__m)" d="M1574 254.5H718" opacity=".3" style="mix-blend-mode:overlay"/><path stroke="url(#hero-overlay-bg_svg__n)" d="M1574 234.5H718" opacity=".3" style="mix-blend-mode:overlay"/><path stroke="url(#hero-overlay-bg_svg__o)" d="M1574 390H750" opacity=".3" style="mix-blend-mode:overlay"/><path stroke="url(#hero-overlay-bg_svg__p)" d="M1574 410H750" opacity=".3" style="mix-blend-mode:overlay"/><path stroke="url(#hero-overlay-bg_svg__q)" d="M1574 514.5H264" opacity=".3" style="mix-blend-mode:overlay"/><path stroke="url(#hero-overlay-bg_svg__r)" d="M1574 644.5H0" opacity=".3" style="mix-blend-mode:overlay"/><path stroke="url(#hero-overlay-bg_svg__s)" d="M1574 750.5h-543" opacity=".3" style="mix-blend-mode:overlay"/><path stroke="url(#hero-overlay-bg_svg__t)" d="M1574 967.5h-543" opacity=".3" style="mix-blend-mode:overlay"/><path stroke="url(#hero-overlay-bg_svg__u)" d="M1574 1156.5h-543" opacity=".3" style="mix-blend-mode:overlay"/><path stroke="url(#hero-overlay-bg_svg__v)" d="M1574 534.5H264" opacity=".3" style="mix-blend-mode:overlay"/><path stroke="url(#hero-overlay-bg_svg__w)" d="M1574 664.5H0" opacity=".3" style="mix-blend-mode:overlay"/><path stroke="url(#hero-overlay-bg_svg__x)" d="M1574 770.5h-543" opacity=".3" style="mix-blend-mode:overlay"/><path stroke="url(#hero-overlay-bg_svg__y)" d="M1574 987.5h-543" opacity=".3" style="mix-blend-mode:overlay"/><path stroke="url(#hero-overlay-bg_svg__z)" d="M1574 1176.5h-543" opacity=".3" style="mix-blend-mode:overlay"/><rect width="156" height="124" x="855" y="260" fill="url(#hero-overlay-bg_svg__A)" opacity=".2" rx="4" style="mix-blend-mode:overlay"/><rect width="155" height="123" x="855.5" y="260.5" stroke="url(#hero-overlay-bg_svg__B)" opacity=".7" rx="3.5" style="mix-blend-mode:overlay"/><rect width="156" height="28" x="855" y="448" fill="url(#hero-overlay-bg_svg__C)" opacity=".2" rx="4" style="mix-blend-mode:overlay"/><rect width="155" height="27" x="855.5" y="448.5" stroke="url(#hero-overlay-bg_svg__D)" opacity=".7" rx="3.5" style="mix-blend-mode:overlay"/><rect width="156" height="28" x="855" y="480" fill="url(#hero-overlay-bg_svg__E)" opacity=".2" rx="4" style="mix-blend-mode:overlay"/><rect width="155" height="27" x="855.5" y="480.5" stroke="url(#hero-overlay-bg_svg__F)" opacity=".7" rx="3.5" style="mix-blend-mode:overlay"/><rect width="156" height="28" x="855" y="416" fill="url(#hero-overlay-bg_svg__G)" opacity=".2" rx="4" style="mix-blend-mode:overlay"/><rect width="155" height="27" x="855.5" y="416.5" stroke="url(#hero-overlay-bg_svg__H)" opacity=".7" rx="3.5" style="mix-blend-mode:overlay"/><rect width="126" height="98" x="445" y="540" fill="url(#hero-overlay-bg_svg__I)" opacity=".2" rx="7" style="mix-blend-mode:overlay"/><rect width="125" height="97" x="445.5" y="540.5" stroke="url(#hero-overlay-bg_svg__J)" opacity=".5" rx="6.5" style="mix-blend-mode:overlay"/><rect width="28" height="28" x="855" y="670" fill="url(#hero-overlay-bg_svg__K)" opacity=".05" rx="4" style="mix-blend-mode:overlay"/><rect width="28" height="28" x="887" y="670" fill="url(#hero-overlay-bg_svg__L)" opacity=".05" rx="4" style="mix-blend-mode:overlay"/><rect width="28" height="28" x="919" y="670" fill="url(#hero-overlay-bg_svg__M)" opacity=".05" rx="4" style="mix-blend-mode:overlay"/><rect width="28" height="28" x="951" y="670" fill="url(#hero-overlay-bg_svg__N)" opacity=".05" rx="4" style="mix-blend-mode:overlay"/><rect width="28" height="28" x="983" y="670" fill="url(#hero-overlay-bg_svg__O)" opacity=".05" rx="4" style="mix-blend-mode:overlay"/><rect width="232" height="157" x="1123" y="993" fill="url(#hero-overlay-bg_svg__P)" opacity=".15" rx="4" style="mix-blend-mode:overlay"/><rect width="231" height="156" x="1123.5" y="993.5" stroke="url(#hero-overlay-bg_svg__Q)" opacity=".2" rx="3.5" style="mix-blend-mode:overlay"/><rect width="232" height="34" x="1123" y="927" fill="url(#hero-overlay-bg_svg__R)" opacity=".15" rx="17" style="mix-blend-mode:overlay"/><path fill="url(#hero-overlay-bg_svg__S)" d="M1288 847h-131c-3.31 0-6 2.686-6 6v34c0 3.314 2.69 6 6 6h131c3.31 0 6-2.686 6-6v-34c0-3.314-2.69-6-6-6" opacity=".15" style="mix-blend-mode:overlay"/><path stroke="url(#hero-overlay-bg_svg__T)" d="M1157 847.5h131c3.04 0 5.5 2.462 5.5 5.5v34c0 3.038-2.46 5.5-5.5 5.5h-131c-3.04 0-5.5-2.462-5.5-5.5v-34c0-3.038 2.46-5.5 5.5-5.5Z" opacity=".7" style="mix-blend-mode:overlay"/><path fill="url(#hero-overlay-bg_svg__U)" d="M1321 776h-118c-3.31 0-6 2.686-6 6v47c0 3.314 2.69 6 6 6h118c3.31 0 6-2.686 6-6v-47c0-3.314-2.69-6-6-6" opacity=".15" style="mix-blend-mode:overlay"/><path stroke="url(#hero-overlay-bg_svg__V)" d="M1203 776.5h118c3.04 0 5.5 2.462 5.5 5.5v47c0 3.038-2.46 5.5-5.5 5.5h-118c-3.04 0-5.5-2.462-5.5-5.5v-47c0-3.038 2.46-5.5 5.5-5.5Z" opacity=".7" style="mix-blend-mode:overlay"/><path fill="url(#hero-overlay-bg_svg__W)" d="M123 676a6 6 0 0 1 6-6h278a6 6 0 0 1 6 6v28a6 6 0 0 1-6 6H129a6 6 0 0 1-6-6z" opacity=".15" style="mix-blend-mode:overlay"/><path stroke="url(#hero-overlay-bg_svg__X)" d="M123.5 676a5.5 5.5 0 0 1 5.5-5.5h278a5.5 5.5 0 0 1 5.5 5.5v28a5.5 5.5 0 0 1-5.5 5.5H129a5.5 5.5 0 0 1-5.5-5.5z" opacity=".7" style="mix-blend-mode:overlay"/><defs><linearGradient id="hero-overlay-bg_svg__a" x1="848.5" x2="848.5" y1="36" y2="764" gradientUnits="userSpaceOnUse"><stop offset=".124" stop-color="#fff" stop-opacity="0"/><stop offset=".216" stop-color="#fff"/><stop offset=".862" stop-color="#fff"/><stop offset=".95" stop-color="#fff" stop-opacity="0"/></linearGradient><linearGradient id="hero-overlay-bg_svg__b" x1="828.5" x2="828.5" y1="36" y2="764" gradientUnits="userSpaceOnUse"><stop offset=".14" stop-color="#fff" stop-opacity="0"/><stop offset=".263" stop-color="#fff"/><stop offset=".84" stop-color="#fff"/><stop offset=".928" stop-color="#fff" stop-opacity="0"/></linearGradient><linearGradient id="hero-overlay-bg_svg__c" x1="596.5" x2="596.5" y1="376" y2="768" gradientUnits="userSpaceOnUse"><stop stop-color="#fff" stop-opacity="0"/><stop offset=".142" stop-color="#fff"/><stop offset=".725" stop-color="#fff"/><stop offset=".844" stop-color="#fff" stop-opacity="0"/></linearGradient><linearGradient id="hero-overlay-bg_svg__d" x1="438.5" x2="438.5" y1="430" y2="768" gradientUnits="userSpaceOnUse"><stop stop-color="#fff" stop-opacity="0"/><stop offset=".142" stop-color="#fff"/><stop offset=".735" stop-color="#fff"/><stop offset=".875" stop-color="#fff" stop-opacity="0"/></linearGradient><linearGradient id="hero-overlay-bg_svg__e" x1="576.5" x2="576.5" y1="376" y2="768" gradientUnits="userSpaceOnUse"><stop stop-color="#fff" stop-opacity="0"/><stop offset=".142" stop-color="#fff"/><stop offset=".745" stop-color="#fff"/><stop offset=".886" stop-color="#fff" stop-opacity="0"/></linearGradient><linearGradient id="hero-overlay-bg_svg__f" x1="418.5" x2="418.5" y1="435" y2="768" gradientUnits="userSpaceOnUse"><stop stop-color="#fff" stop-opacity="0"/><stop offset=".142" stop-color="#fff"/><stop offset=".78" stop-color="#fff"/><stop offset=".886" stop-color="#fff" stop-opacity="0"/></linearGradient><linearGradient id="hero-overlay-bg_svg__g" x1="1016.5" x2="1016.5" y1="36" y2="765" gradientUnits="userSpaceOnUse"><stop offset=".133" stop-color="#fff" stop-opacity="0"/><stop offset=".212" stop-color="#fff"/><stop offset=".897" stop-color="#fff"/><stop offset=".974" stop-color="#fff" stop-opacity="0"/></linearGradient><linearGradient id="hero-overlay-bg_svg__h" x1="1036.5" x2="1036.5" y1="0" y2="870" gradientUnits="userSpaceOnUse"><stop offset=".165" stop-color="#fff" stop-opacity="0"/><stop offset=".287" stop-color="#fff"/><stop offset=".805" stop-color="#fff"/><stop offset=".874" stop-color="#fff" stop-opacity="0"/></linearGradient><linearGradient id="hero-overlay-bg_svg__i" x1="1116.5" x2="1116.5" y1="0" y2="1474" gradientUnits="userSpaceOnUse"><stop offset=".083" stop-color="#fff" stop-opacity="0"/><stop offset=".137" stop-color="#fff"/><stop offset=".46" stop-color="#fff"/><stop offset=".538" stop-color="#fff" stop-opacity=".5"/><stop offset=".774" stop-color="#fff" stop-opacity=".3"/><stop offset="1" stop-color="#fff" stop-opacity="0"/></linearGradient><linearGradient id="hero-overlay-bg_svg__j" x1="1380.5" x2="1380.5" y1="0" y2="1474" gradientUnits="userSpaceOnUse"><stop offset=".083" stop-color="#fff" stop-opacity="0"/><stop offset=".137" stop-color="#fff"/><stop offset=".813" stop-color="#fff"/><stop offset=".946" stop-color="#fff" stop-opacity="0"/></linearGradient><linearGradient id="hero-overlay-bg_svg__k" x1="1096.5" x2="1096.5" y1="0" y2="1474" gradientUnits="userSpaceOnUse"><stop offset=".083" stop-color="#fff" stop-opacity="0"/><stop offset=".137" stop-color="#fff"/><stop offset=".46" stop-color="#fff"/><stop offset=".538" stop-color="#fff" stop-opacity=".5"/><stop offset=".774" stop-color="#fff" stop-opacity=".1"/><stop offset="1" stop-color="#fff" stop-opacity="0"/></linearGradient><linearGradient id="hero-overlay-bg_svg__l" x1="1360.5" x2="1360.5" y1="0" y2="1474" gradientUnits="userSpaceOnUse"><stop offset=".083" stop-color="#fff" stop-opacity="0"/><stop offset=".137" stop-color="#fff"/><stop offset=".813" stop-color="#fff"/><stop offset=".946" stop-color="#fff" stop-opacity="0"/></linearGradient><linearGradient id="hero-overlay-bg_svg__m" x1="718" x2="1574" y1="253.5" y2="253.5" gradientUnits="userSpaceOnUse"><stop offset=".058" stop-color="#fff" stop-opacity="0"/><stop offset=".121" stop-color="#fff"/><stop offset=".742" stop-color="#fff"/><stop offset=".849" stop-color="#fff" stop-opacity="0"/></linearGradient><linearGradient id="hero-overlay-bg_svg__n" x1="718" x2="1574" y1="233.5" y2="233.5" gradientUnits="userSpaceOnUse"><stop offset=".063" stop-color="#fff" stop-opacity="0"/><stop offset=".121" stop-color="#fff"/><stop offset=".741" stop-color="#fff"/><stop offset=".862" stop-color="#fff" stop-opacity="0"/></linearGradient><linearGradient id="hero-overlay-bg_svg__o" x1="750" x2="1574" y1="390" y2="390" gradientUnits="userSpaceOnUse"><stop offset=".027" stop-color="#fff" stop-opacity="0"/><stop offset=".097" stop-color="#fff"/><stop offset=".763" stop-color="#fff"/><stop offset=".849" stop-color="#fff" stop-opacity="0"/></linearGradient><linearGradient id="hero-overlay-bg_svg__p" x1="750" x2="1574" y1="410" y2="410" gradientUnits="userSpaceOnUse"><stop offset=".03" stop-color="#fff" stop-opacity="0"/><stop offset=".106" stop-color="#fff"/><stop offset=".739" stop-color="#fff"/><stop offset=".846" stop-color="#fff" stop-opacity="0"/></linearGradient><linearGradient id="hero-overlay-bg_svg__q" x1="264" x2="1574" y1="513.5" y2="513.5" gradientUnits="userSpaceOnUse"><stop stop-color="#fff" stop-opacity="0"/><stop offset=".073" stop-color="#fff"/><stop offset=".239" stop-color="#fff"/><stop offset=".274" stop-color="#fff" stop-opacity=".28"/><stop offset=".307" stop-color="#fff" stop-opacity="0"/><stop offset=".391" stop-color="#fff" stop-opacity="0"/><stop offset=".419" stop-color="#fff" stop-opacity=".7"/><stop offset=".453" stop-color="#fff"/><stop offset=".84" stop-color="#fff"/><stop offset=".902" stop-color="#fff" stop-opacity="0"/></linearGradient><linearGradient id="hero-overlay-bg_svg__r" x1="0" x2="1574" y1="643.5" y2="643.5" gradientUnits="userSpaceOnUse"><stop offset=".028" stop-color="#fff" stop-opacity="0"/><stop offset=".097" stop-color="#fff"/><stop offset=".366" stop-color="#fff"/><stop offset=".396" stop-color="#fff" stop-opacity=".29"/><stop offset=".42" stop-color="#fff" stop-opacity="0"/><stop offset=".482" stop-color="#fff" stop-opacity="0"/><stop offset=".512" stop-color="#fff" stop-opacity=".29"/><stop offset=".544" stop-color="#fff"/><stop offset=".868" stop-color="#fff"/><stop offset=".919" stop-color="#fff" stop-opacity="0"/></linearGradient><linearGradient id="hero-overlay-bg_svg__s" x1="1031" x2="1574" y1="749.5" y2="749.5" gradientUnits="userSpaceOnUse"><stop offset=".066" stop-color="#fff" stop-opacity="0"/><stop offset=".186" stop-color="#fff"/><stop offset=".672" stop-color="#fff"/><stop offset=".791" stop-color="#fff" stop-opacity="0"/></linearGradient><linearGradient id="hero-overlay-bg_svg__t" x1="1031" x2="1574" y1="966.5" y2="966.5" gradientUnits="userSpaceOnUse"><stop offset=".099" stop-color="#fff" stop-opacity="0"/><stop offset=".189" stop-color="#fff"/><stop offset=".652" stop-color="#fff"/><stop offset=".75" stop-color="#fff" stop-opacity="0"/></linearGradient><linearGradient id="hero-overlay-bg_svg__u" x1="1031" x2="1574" y1="1155.5" y2="1155.5" gradientUnits="userSpaceOnUse"><stop offset=".099" stop-color="#fff" stop-opacity="0"/><stop offset=".189" stop-color="#fff"/><stop offset=".652" stop-color="#fff"/><stop offset=".75" stop-color="#fff" stop-opacity="0"/></linearGradient><linearGradient id="hero-overlay-bg_svg__v" x1="264" x2="1574" y1="533.5" y2="533.5" gradientUnits="userSpaceOnUse"><stop offset=".004" stop-color="#fff" stop-opacity="0"/><stop offset=".037" stop-color="#fff"/><stop offset=".241" stop-color="#fff"/><stop offset=".274" stop-color="#fff" stop-opacity=".3"/><stop offset=".307" stop-color="#fff" stop-opacity="0"/><stop offset=".382" stop-color="#fff" stop-opacity="0"/><stop offset=".415" stop-color="#fff" stop-opacity=".34"/><stop offset=".443" stop-color="#fff"/><stop offset=".839" stop-color="#fff"/><stop offset=".908" stop-color="#fff" stop-opacity="0"/></linearGradient><linearGradient id="hero-overlay-bg_svg__w" x1="0" x2="1574" y1="663.5" y2="663.5" gradientUnits="userSpaceOnUse"><stop stop-color="#fff" stop-opacity="0"/><stop offset=".082" stop-color="#fff"/><stop offset=".347" stop-color="#fff"/><stop offset=".392" stop-color="#fff" stop-opacity=".31"/><stop offset=".413" stop-color="#fff" stop-opacity="0"/><stop offset=".484" stop-color="#fff" stop-opacity="0"/><stop offset=".512" stop-color="#fff" stop-opacity=".24"/><stop offset=".547" stop-color="#fff"/><stop offset=".871" stop-color="#fff"/><stop offset=".937" stop-color="#fff" stop-opacity="0"/></linearGradient><linearGradient id="hero-overlay-bg_svg__x" x1="1031" x2="1574" y1="769.5" y2="769.5" gradientUnits="userSpaceOnUse"><stop offset=".088" stop-color="#fff" stop-opacity="0"/><stop offset=".206" stop-color="#fff"/><stop offset=".672" stop-color="#fff"/><stop offset=".786" stop-color="#fff" stop-opacity="0"/></linearGradient><linearGradient id="hero-overlay-bg_svg__y" x1="1031" x2="1574" y1="986.5" y2="986.5" gradientUnits="userSpaceOnUse"><stop offset=".099" stop-color="#fff" stop-opacity="0"/><stop offset=".2" stop-color="#fff"/><stop offset=".652" stop-color="#fff"/><stop offset=".75" stop-color="#fff" stop-opacity="0"/></linearGradient><linearGradient id="hero-overlay-bg_svg__z" x1="1031" x2="1574" y1="1175.5" y2="1175.5" gradientUnits="userSpaceOnUse"><stop offset=".099" stop-color="#fff" stop-opacity="0"/><stop offset=".189" stop-color="#fff"/><stop offset=".652" stop-color="#fff"/><stop offset=".75" stop-color="#fff" stop-opacity="0"/></linearGradient><linearGradient id="hero-overlay-bg_svg__A" x1="855" x2="1011" y1="384" y2="285" gradientUnits="userSpaceOnUse"><stop stop-color="#fff"/><stop offset="1" stop-color="#fff" stop-opacity=".6"/></linearGradient><linearGradient id="hero-overlay-bg_svg__B" x1="1011" x2="896" y1="260" y2="384" gradientUnits="userSpaceOnUse"><stop stop-color="#fff" stop-opacity=".6"/><stop offset="1" stop-color="#fff"/></linearGradient><linearGradient id="hero-overlay-bg_svg__C" x1="855" x2="879.591" y1="476" y2="406.888" gradientUnits="userSpaceOnUse"><stop offset=".246" stop-color="#fff"/><stop offset="1" stop-color="#fff" stop-opacity=".6"/></linearGradient><linearGradient id="hero-overlay-bg_svg__D" x1="1011" x2="1000.55" y1="448" y2="497.895" gradientUnits="userSpaceOnUse"><stop stop-color="#fff" stop-opacity=".6"/><stop offset="1" stop-color="#fff"/></linearGradient><linearGradient id="hero-overlay-bg_svg__E" x1="855" x2="879.591" y1="508" y2="438.888" gradientUnits="userSpaceOnUse"><stop offset=".246" stop-color="#fff"/><stop offset="1" stop-color="#fff" stop-opacity=".6"/></linearGradient><linearGradient id="hero-overlay-bg_svg__F" x1="1011" x2="1000.55" y1="480" y2="529.895" gradientUnits="userSpaceOnUse"><stop stop-color="#fff" stop-opacity=".6"/><stop offset="1" stop-color="#fff"/></linearGradient><linearGradient id="hero-overlay-bg_svg__G" x1="855" x2="879.591" y1="444" y2="374.888" gradientUnits="userSpaceOnUse"><stop offset=".246" stop-color="#fff"/><stop offset="1" stop-color="#fff" stop-opacity=".6"/></linearGradient><linearGradient id="hero-overlay-bg_svg__H" x1="1011" x2="1000.55" y1="416" y2="465.895" gradientUnits="userSpaceOnUse"><stop stop-color="#fff" stop-opacity=".6"/><stop offset="1" stop-color="#fff"/></linearGradient><linearGradient id="hero-overlay-bg_svg__I" x1="445" x2="571" y1="540" y2="638" gradientUnits="userSpaceOnUse"><stop stop-color="#fff" stop-opacity=".2"/><stop offset=".699" stop-color="#fff"/></linearGradient><linearGradient id="hero-overlay-bg_svg__J" x1="445" x2="571" y1="540" y2="638" gradientUnits="userSpaceOnUse"><stop stop-color="#fff" stop-opacity=".2"/><stop offset=".858" stop-color="#fff"/></linearGradient><linearGradient id="hero-overlay-bg_svg__K" x1="869" x2="869" y1="670" y2="698" gradientUnits="userSpaceOnUse"><stop stop-color="#fff" stop-opacity=".5"/><stop offset="1" stop-color="#fff"/></linearGradient><linearGradient id="hero-overlay-bg_svg__L" x1="901" x2="901" y1="670" y2="698" gradientUnits="userSpaceOnUse"><stop stop-color="#fff" stop-opacity=".5"/><stop offset="1" stop-color="#fff"/></linearGradient><linearGradient id="hero-overlay-bg_svg__M" x1="933" x2="933" y1="670" y2="698" gradientUnits="userSpaceOnUse"><stop stop-color="#fff" stop-opacity=".5"/><stop offset="1" stop-color="#fff"/></linearGradient><linearGradient id="hero-overlay-bg_svg__N" x1="965" x2="965" y1="670" y2="698" gradientUnits="userSpaceOnUse"><stop stop-color="#fff" stop-opacity=".5"/><stop offset="1" stop-color="#fff"/></linearGradient><linearGradient id="hero-overlay-bg_svg__O" x1="997" x2="997" y1="670" y2="698" gradientUnits="userSpaceOnUse"><stop stop-color="#fff" stop-opacity=".5"/><stop offset="1" stop-color="#fff"/></linearGradient><linearGradient id="hero-overlay-bg_svg__P" x1="1123" x2="1355" y1="1117" y2="1042" gradientUnits="userSpaceOnUse"><stop stop-color="#fff"/><stop offset="1" stop-color="#fff" stop-opacity=".5"/></linearGradient><linearGradient id="hero-overlay-bg_svg__Q" x1="1123" x2="1355" y1="1130.5" y2="1023.5" gradientUnits="userSpaceOnUse"><stop stop-color="#fff"/><stop offset="1" stop-color="#fff" stop-opacity=".5"/></linearGradient><linearGradient id="hero-overlay-bg_svg__R" x1="1123" x2="1355" y1="961" y2="944" gradientUnits="userSpaceOnUse"><stop stop-color="#fff"/><stop offset=".674" stop-color="#fff" stop-opacity=".8"/></linearGradient><linearGradient id="hero-overlay-bg_svg__S" x1="1263.75" x2="1239.56" y1="847" y2="900.687" gradientUnits="userSpaceOnUse"><stop stop-color="#fff" stop-opacity=".7"/><stop offset="1" stop-color="#fff"/></linearGradient><linearGradient id="hero-overlay-bg_svg__T" x1="1258.25" x2="1237.94" y1="847" y2="899.027" gradientUnits="userSpaceOnUse"><stop stop-color="#fff" stop-opacity=".7"/><stop offset="1" stop-color="#fff"/></linearGradient><linearGradient id="hero-overlay-bg_svg__U" x1="1299.5" x2="1262" y1="776" y2="835" gradientUnits="userSpaceOnUse"><stop stop-color="#fff" stop-opacity=".7"/><stop offset="1" stop-color="#fff"/></linearGradient><linearGradient id="hero-overlay-bg_svg__V" x1="1294.5" x2="1262" y1="776" y2="835" gradientUnits="userSpaceOnUse"><stop stop-color="#fff" stop-opacity=".7"/><stop offset="1" stop-color="#fff"/></linearGradient><linearGradient id="hero-overlay-bg_svg__W" x1="227.5" x2="268" y1="669.5" y2="710" gradientUnits="userSpaceOnUse"><stop stop-color="#fff" stop-opacity=".7"/><stop offset="1" stop-color="#fff"/></linearGradient><linearGradient id="hero-overlay-bg_svg__X" x1="244.5" x2="387" y1="670" y2="710" gradientUnits="userSpaceOnUse"><stop stop-color="#fff" stop-opacity=".3"/><stop offset="1" stop-color="#fff" stop-opacity=".5"/></linearGradient></defs></svg>